<?xml version="1.0" encoding="UTF-8"?>
<svg version="1.1" xmlns="http://www.w3.org/2000/svg" width="500" height="500">
<path d="M0 0 C7.05533232 6.03098554 11.34149259 13.10087114 12.375 22.359375 C12.78804462 34.18277715 9.68194259 43.06334012 2 52 C2.90878906 52.4021875 2.90878906 52.4021875 3.8359375 52.8125 C13.30635505 57.24174144 20.87257524 63.17734544 27.52734375 71.23828125 C28.95022399 73.02206337 28.95022399 73.02206337 30.6171875 74.46875 C33.06468464 77.17897282 33.25226553 80.49139981 34 84 C29.38 84 24.76 84 20 84 C20 85.65 20 87.3 20 89 C23.63 89 27.26 89 31 89 C31 91.64 31 94.28 31 97 C27.37 97 23.74 97 20 97 C20 101.62 20 106.24 20 111 C17.03 111 14.06 111 11 111 C11 99.45 11 87.9 11 76 C15.62 75.67 20.24 75.34 25 75 C7.55106862 61.91330146 -12.50367483 57.63045929 -33.984375 60.46875 C-51.08933865 63.44969802 -64.14062795 70.55672592 -75 84 C-75.33 83.34 -75.66 82.68 -76 82 C-70.20292802 69.16882395 -59.01519836 58.33856771 -46.10546875 52.74609375 C-45.41066406 52.49988281 -44.71585938 52.25367188 -44 52 C-44.47050781 51.31035156 -44.94101563 50.62070313 -45.42578125 49.91015625 C-52.32110487 39.50292867 -55.66130937 30.982823 -53.56640625 18.39453125 C-51.17451294 8.81210153 -45.42608089 2.39630757 -37.2109375 -2.80859375 C-24.71214224 -9.54381028 -11.56980249 -7.68092885 0 0 Z M-38.80859375 14.12109375 C-42.44820972 19.86094714 -42.72609811 25.37202753 -42 32 C-40.17584111 38.74246072 -35.85840998 42.51012687 -30 46 C-24.73074155 48.63462922 -19.62767772 48.34612661 -14 47 C-7.5099664 44.12171455 -2.73755266 39.61863999 0 33 C0.896501 25.86573938 0.90305083 19.54308759 -3.51171875 13.6484375 C-8.56163342 8.05509369 -13.19791328 5.37397574 -20.8125 4.625 C-28.41365505 4.87207387 -34.09504604 8.33323317 -38.80859375 14.12109375 Z " fill="#010101" transform="translate(271,146)"/>
<path d="M0 0 C1.08321533 -0.04294189 2.16643066 -0.08588379 3.2824707 -0.13012695 C8.51138679 -0.17352886 12.05697664 -0.15846712 16.078125 3.40625 C16.60970215 3.94958984 17.1412793 4.49292969 17.68896484 5.05273438 C20.76554746 8.15337732 24.9183545 8.9395434 29.125 9.5 C35.20914352 9.17246862 40.13240233 6.86236169 45.125 3.5 C45.785 2.51 46.445 1.52 47.125 0.5 C49.28198242 0.09594727 49.28198242 0.09594727 51.98046875 0.06640625 C52.98408447 0.05512695 53.9877002 0.04384766 55.02172852 0.03222656 C56.6506604 0.04721191 56.6506604 0.04721191 58.3125 0.0625 C59.43003662 0.06862305 60.54757324 0.07474609 61.69897461 0.08105469 C77.46191059 0.36981417 92.73547213 3.52477802 107.84765625 7.86328125 C115.28682575 9.30855494 120.69289072 5.93660372 127.19921875 2.6796875 C130.125 1.5 130.125 1.5 133.125 2.5 C129.13802746 6.5824054 125.10461433 10.60540582 120.875 14.4375 C119.93914062 15.28634766 119.93914062 15.28634766 118.984375 16.15234375 C116.90850469 17.65691362 115.64873098 18.10160482 113.125 18.5 C110.76928711 18.11035156 110.76928711 18.11035156 108.15234375 17.390625 C107.17998779 17.13168457 106.20763184 16.87274414 105.20581055 16.60595703 C104.16851807 16.32349121 103.13122559 16.04102539 102.0625 15.75 C88.06140678 12.11818091 74.36816734 9.3514698 59.875 8.9375 C59.10051514 8.89834473 58.32603027 8.85918945 57.52807617 8.81884766 C52.04826826 8.79366416 49.63204731 10.29528681 45.73339844 14.05932617 C41.42664344 17.91697056 34.7556675 18.41604253 29.1875 18.59375 C23.21430091 18.26190561 18.06221071 16.96374471 13.125 13.5 C12.568125 12.80648438 12.01125 12.11296875 11.4375 11.3984375 C8.05035247 8.61777247 4.75594772 8.86293509 0.5625 8.9375 C-0.30012451 8.94555664 -1.16274902 8.95361328 -2.05151367 8.96191406 C-18.25260864 9.43485555 -34.68759208 13.15953114 -50.15234375 17.8984375 C-53.01812458 18.53162293 -54.22294992 18.6912664 -56.875 17.5 C-59.20703125 15.64453125 -59.20703125 15.64453125 -61.6875 13.3125 C-62.55761719 12.50554687 -63.42773438 11.69859375 -64.32421875 10.8671875 C-65.16597656 10.08601563 -66.00773438 9.30484375 -66.875 8.5 C-69.18942284 6.47641614 -71.52997022 4.48817742 -73.875 2.5 C-70.875 1.5 -70.875 1.5 -67.58203125 2.96875 C-65.62774067 3.97084793 -63.691139 4.9980124 -61.76367188 6.05078125 C-56.86401934 8.53776363 -53.24958191 8.73113386 -47.875 7.5 C-47.05572021 7.3242041 -46.23644043 7.1484082 -45.39233398 6.96728516 C-42.65045171 6.35943526 -39.9195574 5.71298986 -37.1875 5.0625 C-24.66895274 2.19146204 -12.87310045 0.29221431 0 0 Z " fill="#3A81D9" transform="translate(219.875,335.5)"/>
<path d="M0 0 C2.85050375 2.67841806 4.93323763 5.25498849 6.8828125 8.640625 C7.40488281 9.53789307 7.92695313 10.43516113 8.46484375 11.35961914 C9.01269531 12.31344482 9.56054688 13.26727051 10.125 14.25 C11.29271816 16.25481142 12.46199938 18.25871321 13.6328125 20.26171875 C14.20676758 21.24446777 14.78072266 22.2272168 15.37207031 23.23974609 C17.52226787 26.88553698 19.7428241 30.48223283 22 34.0625 C22.38542969 34.67601318 22.77085937 35.28952637 23.16796875 35.92163086 C25.00488283 38.84192036 26.84727584 41.75870816 28.69238281 44.67382812 C30.50948114 47.54951575 32.31764544 50.43068099 34.125 53.3125 C34.70636719 54.22717041 35.28773438 55.14184082 35.88671875 56.08422852 C36.68916016 57.36704712 36.68916016 57.36704712 37.5078125 58.67578125 C37.98879395 59.43802002 38.46977539 60.20025879 38.96533203 60.9855957 C40 63 40 63 40 66 C24.05374857 66.75934531 8.83833416 62.04079716 -6.25 57.4375 C-30.79944616 49.44173121 -30.79944616 49.44173121 -55.4375 54.375 C-58.92287008 56.26641661 -62.04101276 58.33691149 -65 61 C-65.33 60.34 -65.66 59.68 -66 59 C-62.8565646 51.73080564 -57.40966262 46.89425701 -50.625 43.125 C-31.61637697 37.17353359 -9.19367766 46.11322367 8.77026367 52.01660156 C14.13506478 53.77469936 19.41932551 55.08513533 25 56 C23.32131763 50.25394695 20.68937039 45.08232596 18.02734375 39.74609375 C17.03570946 37.73767851 16.04417604 35.72921346 15.05273438 33.72070312 C13.4921339 30.57070699 11.92963299 27.42167193 10.36499023 24.27368164 C8.85159877 21.22526864 7.34537367 18.17339516 5.83984375 15.12109375 C5.13516212 13.71155678 5.13516212 13.71155678 4.41624451 12.27354431 C3.98231888 11.39235428 3.54839325 10.51116425 3.10131836 9.60327148 C2.71874374 8.83305161 2.33616913 8.06283173 1.94200134 7.26927185 C0.94130214 4.85859743 0.4281684 2.56934709 0 0 Z " fill="#3D81D5" transform="translate(323,268)"/>
<path d="M0 0 C1 3 1 3 0.00292969 5.54589844 C-0.51881836 6.5568457 -1.04056641 7.56779297 -1.578125 8.609375 C-2.15723633 9.74632812 -2.73634766 10.88328125 -3.33300781 12.0546875 C-3.80220642 12.95912598 -3.80220642 12.95912598 -4.28088379 13.88183594 C-5.91466693 17.03127758 -7.51714544 20.19664231 -9.125 23.359375 C-9.45147522 23.99911255 -9.77795044 24.6388501 -10.11431885 25.29797363 C-13.2642883 31.48216665 -16.27483046 37.72994728 -19.25 44 C-19.7027832 44.95358398 -20.15556641 45.90716797 -20.62207031 46.88964844 C-21.4110978 48.55213361 -22.1990549 50.21512776 -22.98535156 51.87890625 C-23.96719655 53.93142532 -24.97604292 55.96821116 -26 58 C-17.69894187 55.74298027 -9.41673261 53.43919195 -1.1796875 50.95703125 C-0.00317627 50.60318359 1.17333496 50.24933594 2.38549805 49.88476562 C4.70623332 49.18419037 7.02548361 48.47867178 9.34301758 47.76757812 C22.44166383 43.81720809 39.61050828 38.94182232 52.75 45.1875 C59.38989288 49.20963478 63.1576311 54.4107461 67 61 C63.44295843 61 62.631071 60.23782333 59.8125 58.1875 C50.50583056 51.81265696 42.0274095 50.10182939 30.921875 52.14453125 C21.19051873 53.98780144 11.74397357 56.77235607 2.25 59.5625 C-24.48060859 67.40840504 -24.48060859 67.40840504 -35.25 67.125 C-36.16265625 67.10695313 -37.0753125 67.08890625 -38.015625 67.0703125 C-38.67046875 67.04710937 -39.3253125 67.02390625 -40 67 C-38.6380812 63.35072976 -36.99076631 60.11490014 -34.98046875 56.78125 C-34.37678467 55.77698975 -33.77310059 54.77272949 -33.15112305 53.73803711 C-32.50312744 52.66948486 -31.85513184 51.60093262 -31.1875 50.5 C-30.51823486 49.39084229 -29.84896973 48.28168457 -29.15942383 47.13891602 C-22.85319836 36.70953261 -16.45267214 26.33932052 -10 16 C-9.4946875 15.18982422 -8.989375 14.37964844 -8.46875 13.54492188 C-5.65021738 9.02719575 -2.82732338 4.51222941 0 0 Z " fill="#3A81D9" transform="translate(176,267)"/>
<path d="M0 0 C3.75071615 -0.41382683 7.26652354 -0.62399396 11 0 C13.52724468 2.13637845 14.44669538 4.00051522 16 7 C16.61875 6.21625 17.2375 5.4325 17.875 4.625 C20 2 20 2 22 0 C24.6015625 -0.1953125 24.6015625 -0.1953125 27.625 -0.125 C29.12933594 -0.09792969 29.12933594 -0.09792969 30.6640625 -0.0703125 C31.43492187 -0.04710937 32.20578125 -0.02390625 33 0 C31.31029911 3.66398299 29.12699789 6.90832572 26.875 10.25 C26.15054687 11.32765625 25.42609375 12.4053125 24.6796875 13.515625 C24.12539063 14.33546875 23.57109375 15.1553125 23 16 C26.44845062 21.28273286 29.99296873 26.41415262 33.8984375 31.37109375 C35 33 35 33 35 35 C31.19390478 35.55749315 27.78428446 35.77613341 24 35 C21.00708564 32.37992309 18.99144887 29.42556392 17 26 C13.52444818 29.31534228 13.52444818 29.31534228 10.6875 33.15625 C9 35 9 35 6.30078125 35.390625 C5.31464844 35.34421875 4.32851563 35.2978125 3.3125 35.25 C2.31863281 35.21390625 1.32476562 35.1778125 0.30078125 35.140625 C-0.45847656 35.09421875 -1.21773438 35.0478125 -2 35 C1.42752566 28.5733894 5.65346984 22.83405626 10 17 C6.84985504 11.20909522 3.55506117 5.55194659 0 0 Z " fill="#010101" transform="translate(382,222)"/>
<path d="M0 0 C2.97 0 5.94 0 9 0 C12.55239327 7.60758106 15.78091701 15.29635309 18.8125 23.125 C19.42254883 24.68347656 19.42254883 24.68347656 20.04492188 26.2734375 C23 33.86227679 23 33.86227679 23 35 C19.7 35 16.4 35 13 35 C12.34 32.69 11.68 30.38 11 28 C6.71 28 2.42 28 -2 28 C-2.33 29.98 -2.66 31.96 -3 34 C-4 35 -4 35 -6.28515625 35.09765625 C-7.65994141 35.08025391 -7.65994141 35.08025391 -9.0625 35.0625 C-9.98160156 35.05347656 -10.90070313 35.04445313 -11.84765625 35.03515625 C-12.55792969 35.02355469 -13.26820313 35.01195312 -14 35 C-12.42065384 30.85263697 -10.83579737 26.70740016 -9.25 22.5625 C-8.58484375 20.81549805 -8.58484375 20.81549805 -7.90625 19.03320312 C-5.44164788 12.59986671 -2.86757127 6.26443723 0 0 Z M4 13 C2.74335022 15.90600261 2 17.79604584 2 21 C3.98 21 5.96 21 8 21 C7.01 18.36 6.02 15.72 5 13 C4.67 13 4.34 13 4 13 Z " fill="#010101" transform="translate(172,222)"/>
<path d="M0 0 C0.804375 0.495 1.60875 0.99 2.4375 1.5 C1.6875 4.4375 1.6875 4.4375 0.4375 7.5 C-3.03853859 9.50540688 -7.78225176 8.06703724 -11.5625 7.5 C-10.86417108 10.6696513 -10.86417108 10.6696513 -8.1640625 11.96484375 C-6.1849067 12.94403238 -4.20574009 13.92319916 -2.2265625 14.90234375 C0.51572517 16.54691216 1.85984034 17.74302665 3.4375 20.5 C3.95784742 25.18312676 4.14031479 27.3453757 1.6875 31.375 C-2.83578152 35.6469881 -6.6666279 35.91722647 -12.72265625 35.8359375 C-17.00963853 35.32881167 -19.88828585 33.71839345 -23.5625 31.5 C-22.88161019 28.58014819 -21.98148766 26.14877696 -20.5625 23.5 C-19.69625 23.809375 -18.83 24.11875 -17.9375 24.4375 C-14.1768935 25.62139464 -10.52026164 26.5 -6.5625 26.5 C-6.5625 25.18 -6.5625 23.86 -6.5625 22.5 C-7.243125 22.2525 -7.92375 22.005 -8.625 21.75 C-13.38458219 19.72464588 -17.62207837 17.91063244 -20.5625 13.5 C-21.32392663 6.8647108 -21.32392663 6.8647108 -19.546875 3.6796875 C-14.44277903 -2.68505868 -7.19840372 -3.03090683 0 0 Z " fill="#010101" transform="translate(265.5625,222.5)"/>
<path d="M0 0 C0.78375 0.495 1.5675 0.99 2.375 1.5 C1.87668276 5.18754757 1.27432357 7.10490662 -1.625 9.5 C-2.615 9.17 -3.605 8.84 -4.625 8.5 C-10.52635079 7.89049834 -10.52635079 7.89049834 -15.625 10.5625 C-18.15475133 14.27807226 -18.4128128 16.0882483 -17.625 20.5 C-15.83513047 23.6235883 -15.83513047 23.6235883 -12.625 25.5 C-8.3725929 26.14791492 -4.69623851 25.8570795 -0.625 24.5 C2.375 28.82 2.375 28.82 2.375 31.6875 C0.91317531 34.33705726 -0.79116467 34.57531674 -3.625 35.5 C-9.84072304 36.19666765 -15.34263503 36.14734724 -20.625 32.5 C-24.90870653 28.81401997 -28.15285055 25.09609721 -28.91015625 19.328125 C-29.10373937 14.31179718 -28.53684658 10.72687407 -25.625 6.5 C-18.38634871 -0.95312985 -10.03684794 -4.15317846 0 0 Z " fill="#010101" transform="translate(113.625,222.5)"/>
<path d="M0 0 C0.99 0.495 1.98 0.99 3 1.5 C2.25 4.4375 2.25 4.4375 1 7.5 C-2.42357596 9.40198664 -6.2953927 8.14118203 -10 7.5 C-10 8.49 -10 9.48 -10 10.5 C-9.24074219 10.87511719 -8.48148438 11.25023437 -7.69921875 11.63671875 C-6.70535156 12.14847656 -5.71148437 12.66023437 -4.6875 13.1875 C-3.20830078 13.93580078 -3.20830078 13.93580078 -1.69921875 14.69921875 C1.28858747 16.69253086 2.47587357 18.27901282 4 21.5 C4.58763137 25.44552489 4.16374881 27.18463193 2.3125 30.75 C-0.73081848 34.36908144 -2.60806732 35.23560675 -7.26171875 35.75 C-13.62993688 36.06207195 -17.54095464 34.73498984 -23 31.5 C-22.45276317 28.12537285 -21.9451 26.41765 -20 23.5 C-19.13375 23.809375 -18.2675 24.11875 -17.375 24.4375 C-14.23849262 25.42491899 -11.24932587 26.03581059 -8 26.5 C-8 25.18 -8 23.86 -8 22.5 C-8.61488281 22.18546875 -9.22976562 21.8709375 -9.86328125 21.546875 C-10.67152344 21.11890625 -11.47976562 20.6909375 -12.3125 20.25 C-13.11300781 19.83234375 -13.91351563 19.4146875 -14.73828125 18.984375 C-17.87449495 16.92606549 -19.67069078 15.03403214 -20.46875 11.31640625 C-20.52944377 6.93886833 -20.45098763 5.08506504 -17.6875 1.5 C-12.2747861 -2.52806616 -6.05749812 -2.61014147 0 0 Z " fill="#010101" transform="translate(227,222.5)"/>
<path d="M0 0 C6.93 0 13.86 0 21 0 C21 2.64 21 5.28 21 8 C17.04 8 13.08 8 9 8 C9 9.65 9 11.3 9 13 C9.78246094 12.98839844 10.56492187 12.97679687 11.37109375 12.96484375 C12.38300781 12.95582031 13.39492188 12.94679687 14.4375 12.9375 C15.44683594 12.92589844 16.45617187 12.91429687 17.49609375 12.90234375 C20 13 20 13 21 14 C21.04092937 16.33297433 21.04241723 18.66705225 21 21 C17.04 21 13.08 21 9 21 C9 23.31 9 25.62 9 28 C12.96 28 16.92 28 21 28 C21 30.31 21 32.62 21 35 C14.07 35 7.14 35 0 35 C0 23.45 0 11.9 0 0 Z " fill="#010101" transform="translate(349,222)"/>
<path d="M0 0 C2.97 0 5.94 0 9 0 C9 9.24 9 18.48 9 28 C12.96 28 16.92 28 21 28 C21 30.31 21 32.62 21 35 C14.07 35 7.14 35 0 35 C0 23.45 0 11.9 0 0 Z " fill="#000000" transform="translate(316,222)"/>
<path d="M0 0 C2.97 0 5.94 0 9 0 C9 9.24 9 18.48 9 28 C12.96 28 16.92 28 21 28 C21 30.31 21 32.62 21 35 C14.07 35 7.14 35 0 35 C0 23.45 0 11.9 0 0 Z " fill="#000000" transform="translate(128,222)"/>
<path d="M0 0 C0.72832031 0.51175781 1.45664063 1.02351563 2.20703125 1.55078125 C2.20703125 2.54078125 2.20703125 3.53078125 2.20703125 4.55078125 C-2.27924884 3.78170466 -6.12244373 2.26075438 -10.29296875 0.48828125 C-21.67478755 -3.7799008 -32.79918171 -1.06195966 -43.98046875 2.42578125 C-46.38992251 3.15466999 -48.80006531 3.88128541 -51.2109375 4.60546875 C-52.34265381 4.94562012 -53.47437012 5.28577148 -54.64038086 5.63623047 C-60.53717459 7.34686234 -66.17558482 8.84986249 -72.35546875 8.67578125 C-73.20238281 8.65773438 -74.04929688 8.6396875 -74.921875 8.62109375 C-75.53933594 8.59789062 -76.15679687 8.5746875 -76.79296875 8.55078125 C-73.90621329 6.9909553 -71.18735359 6.03319731 -68.00390625 5.25390625 C-67.07151123 5.02010254 -66.13911621 4.78629883 -65.1784668 4.54541016 C-64.18500244 4.29968262 -63.19153809 4.05395508 -62.16796875 3.80078125 C-55.53646653 2.14225662 -49.06443989 0.37727218 -42.65893555 -2.01513672 C-27.81869294 -7.52679916 -14.17855738 -7.35698572 0 0 Z " fill="#497EBE" transform="translate(236.79296875,328.44921875)"/>
<path d="M0 0 C7.79366878 2.69008339 15.66151421 4.62115911 23.73046875 6.26953125 C23.73046875 6.59953125 23.73046875 6.92953125 23.73046875 7.26953125 C16.04356409 7.68835544 9.38580317 6.5090772 1.98046875 4.51953125 C0.92569336 4.24802246 -0.12908203 3.97651367 -1.21582031 3.69677734 C-6.86440353 2.22953399 -12.44662568 0.62362472 -18.01953125 -1.10546875 C-30.52259201 -4.73196331 -40.90552763 -2.55105597 -52.26953125 3.26953125 C-53.25953125 3.26953125 -54.24953125 3.26953125 -55.26953125 3.26953125 C-55.1015625 1.4375 -55.1015625 1.4375 -54.26953125 -0.73046875 C-51.90625 -2.1796875 -51.90625 -2.1796875 -48.95703125 -3.41796875 C-47.50876953 -4.04251953 -47.50876953 -4.04251953 -46.03125 -4.6796875 C-30.23530299 -10.68974372 -15.18664003 -5.24389656 0 0 Z " fill="#4382C9" transform="translate(316.26953125,329.73046875)"/>
<path d="M0 0 C1.62216431 -0.06380859 1.62216431 -0.06380859 3.27709961 -0.12890625 C8.50996633 -0.17429315 12.05875972 -0.15708707 16.0859375 3.40625 C16.61783691 3.94958984 17.14973633 4.49292969 17.69775391 5.05273438 C20.77698263 8.17515447 24.8930113 8.99386879 29.125 9.5 C32.89498455 9.17072287 36.46929501 8.46605132 40.125 7.5 C40.125 8.16 40.125 8.82 40.125 9.5 C34.29794384 12.60776329 27.7029278 12.2111525 21.5 10.5 C20.71625 10.17 19.9325 9.84 19.125 9.5 C19.62 10.985 19.62 10.985 20.125 12.5 C19.465 12.83 18.805 13.16 18.125 13.5 C18.72828125 13.62117188 19.3315625 13.74234375 19.953125 13.8671875 C20.75234375 14.03476562 21.5515625 14.20234375 22.375 14.375 C23.16390625 14.53742188 23.9528125 14.69984375 24.765625 14.8671875 C27.09331144 15.49150075 29.01531952 16.34838542 31.125 17.5 C31.125 16.84 31.125 16.18 31.125 15.5 C34.425 15.5 37.725 15.5 41.125 15.5 C35.72440635 19.10039577 28.72797918 19.03463616 22.4375 17.875 C17.83976166 16.66550487 13.8399561 14.45680179 10.125 11.5 C9.63 10.51 9.63 10.51 9.125 9.5 C0.875 9.5 -7.375 9.5 -15.875 9.5 C-12.01759767 7.57129883 -10.75870357 7.25716624 -6.671875 7.3046875 C-5.6921875 7.31113281 -4.7125 7.31757813 -3.703125 7.32421875 C-2.68734375 7.34097656 -1.6715625 7.35773438 -0.625 7.375 C0.40625 7.38402344 1.4375 7.39304687 2.5 7.40234375 C5.04190287 7.42587989 7.5833328 7.45875977 10.125 7.5 C10.125 6.51 10.125 5.52 10.125 4.5 C10.785 4.5 11.445 4.5 12.125 4.5 C11.63 3.51 11.63 3.51 11.125 2.5 C7.50001666 2.47106068 3.87506287 2.45322208 0.25 2.4375 C-0.78253906 2.42912109 -1.81507813 2.42074219 -2.87890625 2.41210938 C-3.86503906 2.40888672 -4.85117188 2.40566406 -5.8671875 2.40234375 C-6.77839355 2.39710693 -7.68959961 2.39187012 -8.62841797 2.38647461 C-10.91187509 2.35114435 -10.91187509 2.35114435 -12.875 3.5 C-15.0822923 3.57092842 -17.29167452 3.58415025 -19.5 3.5625 C-20.68851563 3.55347656 -21.87703125 3.54445313 -23.1015625 3.53515625 C-24.01679688 3.52355469 -24.93203125 3.51195312 -25.875 3.5 C-25.875 3.17 -25.875 2.84 -25.875 2.5 C-17.31016961 0.59292047 -8.74711773 0.17282022 0 0 Z " fill="#437FC8" transform="translate(219.875,335.5)"/>
<path d="M0 0 C1 3 1 3 0.00292969 5.54589844 C-0.77969238 7.06231934 -0.77969238 7.06231934 -1.578125 8.609375 C-2.15715576 9.74640869 -2.73618652 10.88344238 -3.33276367 12.05493164 C-3.97173031 13.28667927 -4.61081155 14.51836746 -5.25 15.75 C-6.54733527 18.28293581 -7.83805513 20.81922368 -9.12890625 23.35546875 C-9.45558792 23.99499985 -9.78226959 24.63453094 -10.11885071 25.29344177 C-13.75884945 32.44119379 -17.17036839 39.69619263 -20.53417969 46.97753906 C-20.94958008 47.86280273 -21.36498047 48.74806641 -21.79296875 49.66015625 C-22.1489917 50.42980713 -22.50501465 51.19945801 -22.87182617 51.99243164 C-24.02327667 54.04142049 -25.26221946 55.43229083 -27 57 C-27 53.79604584 -26.25664978 51.90600261 -25 49 C-24.34 49 -23.68 49 -23 49 C-23.33 47.35 -23.66 45.7 -24 44 C-24.66 44 -25.32 44 -26 44 C-24.52269317 39.95413531 -22.57385963 36.44688094 -20.33203125 32.7734375 C-19.9741301 32.18511139 -19.61622894 31.59678528 -19.2474823 30.9906311 C-18.49024336 29.74739502 -17.73119887 28.50525709 -16.97045898 27.26416016 C-15.83005359 25.40363792 -14.69478313 23.54006938 -13.56054688 21.67578125 C-9.12380098 14.39662579 -4.60850972 7.1720681 0 0 Z " fill="#3E80D0" transform="translate(176,267)"/>
<path d="M0 0 C4.21860102 0.60598689 7.31865776 2.13013982 11.0625 4.125 C17.75334211 7.332938 22.80877105 7.42528862 30 6 C29.34 6.66 28.68 7.32 28 8 C26.68 8 25.36 8 24 8 C24 8.99 24 9.98 24 11 C27.96 11.33 31.92 11.66 36 12 C32.73795243 13.63102378 29.97278684 14.70958612 26.5 15.6875 C25.5615625 15.95949219 24.623125 16.23148437 23.65625 16.51171875 C20.85051007 17.02747977 19.59810773 17.12014226 17 16 C14.66796875 14.14453125 14.66796875 14.14453125 12.1875 11.8125 C9.13164032 8.97394589 6.07336149 6.17724353 2.875 3.5 C1.92625 2.675 0.9775 1.85 0 1 C0 0.67 0 0.34 0 0 Z " fill="#4386CD" transform="translate(146,337)"/>
<path d="M0 0 C2.64308892 0.68397619 2.64308892 0.68397619 5.04296875 -0.0859375 C8.25871772 -0.58943734 9.74920935 0.04358705 12.6875 1.375 C16.03045971 2.86888512 19.06998824 3.89277481 22.6875 4.5 C23.0175 5.49 23.3475 6.48 23.6875 7.5 C25.9975 7.83 28.3075 8.16 30.6875 8.5 C27.81774831 10.45143115 26.56135237 10.48930952 23 10.1875 C19.6875 9.5 19.6875 9.5 18.6875 8.5 C16.68791636 8.45919217 14.68704746 8.45745644 12.6875 8.5 C12.6875 7.84 12.6875 7.18 12.6875 6.5 C11.6975 6.561875 10.7075 6.62375 9.6875 6.6875 C5.37971307 6.6875 1.45309795 5.60354092 -2.3125 3.5 C-2.9725 2.51 -3.6325 1.52 -4.3125 0.5 C-2.3125 -0.5 -2.3125 -0.5 0 0 Z " fill="#3781DE" transform="translate(300.3125,314.5)"/>
<path d="M0 0 C0 0.66 0 1.32 0 2 C0.99 2.33 1.98 2.66 3 3 C-0.82182505 4.10622674 -4.64469398 5.20876552 -8.46850586 6.30810547 C-10.39816719 6.86367566 -12.32702239 7.42204331 -14.25585938 7.98046875 C-32.82863514 13.31468633 -32.82863514 13.31468633 -39.5625 13.125 C-40.40941406 13.10695313 -41.25632813 13.08890625 -42.12890625 13.0703125 C-42.74636719 13.04710937 -43.36382812 13.02390625 -44 13 C-41.07079288 11.41281779 -38.30238253 10.45966421 -35.0703125 9.66796875 C-34.11608398 9.42900879 -33.16185547 9.19004883 -32.17871094 8.94384766 C-31.17098633 8.69425293 -30.16326172 8.4446582 -29.125 8.1875 C-21.06847236 6.15127639 -13.29972288 3.88940473 -5.546875 0.8828125 C-3 0 -3 0 0 0 Z " fill="#447CC2" transform="translate(204,324)"/>
<path d="M0 0 C2.52197266 -0.34057617 2.52197266 -0.34057617 5.6640625 -0.29296875 C6.78554688 -0.28330078 7.90703125 -0.27363281 9.0625 -0.26367188 C10.238125 -0.23853516 11.41375 -0.21339844 12.625 -0.1875 C13.80835938 -0.17396484 14.99171875 -0.16042969 16.2109375 -0.14648438 C19.14107539 -0.11103916 22.07031459 -0.06162769 25 0 C25 0.33 25 0.66 25 1 C17.08 1.33 9.16 1.66 1 2 C1.66 3.32 2.32 4.64 3 6 C2.67 6.33 2.34 6.66 2 7 C8.27 7 14.54 7 21 7 C21 7.33 21 7.66 21 8 C19.85402344 8.00257813 18.70804687 8.00515625 17.52734375 8.0078125 C7.84185625 7.8109889 7.84185625 7.8109889 -0.4375 12.0625 C-1.7059375 13.5165625 -1.7059375 13.5165625 -3 15 C-3.66 15 -4.32 15 -5 15 C-5.33 14.01 -5.66 13.02 -6 12 C-5.01 11.67 -4.02 11.34 -3 11 C-2.34 11.33 -1.68 11.66 -1 12 C-1.33 10.35 -1.66 8.7 -2 7 C-3.65 7 -5.3 7 -7 7 C-6.21625 6.401875 -5.4325 5.80375 -4.625 5.1875 C-1.85425677 3.08914751 -1.85425677 3.08914751 0 0 Z " fill="#4381CC" transform="translate(267,336)"/>
<path d="M0 0 C1 3 1 3 -0.17163086 5.91088867 C-0.76339111 7.0682251 -1.35515137 8.22556152 -1.96484375 9.41796875 C-2.27700333 10.03521317 -2.5891629 10.65245758 -2.91078186 11.28840637 C-3.9104064 13.25965716 -4.92370843 15.22350378 -5.9375 17.1875 C-6.61744878 18.52232212 -7.29649672 19.85760354 -7.97460938 21.19335938 C-9.63931774 24.46763441 -11.3163646 27.73540916 -13 31 C-13.33 30.01 -13.66 29.02 -14 28 C-14.66 28 -15.32 28 -16 28 C-16 28.99 -16 29.98 -16 31 C-16.66 31 -17.32 31 -18 31 C-16.52804325 26.95375443 -14.57320129 23.47904653 -12.3046875 19.82421875 C-11.95238068 19.25419632 -11.60007385 18.68417389 -11.23709106 18.09687805 C-10.120067 16.29144534 -8.99763533 14.48944771 -7.875 12.6875 C-7.11292044 11.45790584 -6.35119794 10.22809031 -5.58984375 8.99804688 C-3.73068637 5.99612576 -1.86666662 2.99725895 0 0 Z " fill="#417EC6" transform="translate(176,267)"/>
<path d="M0 0 C0 0.33 0 0.66 0 1 C-1.60407328 1.02708567 -3.2082785 1.04643483 -4.8125 1.0625 C-6.15248047 1.07990234 -6.15248047 1.07990234 -7.51953125 1.09765625 C-10 1 -10 1 -13 0 C-14.9920303 -0.08291953 -16.98673713 -0.10738177 -18.98046875 -0.09765625 C-20.72553711 -0.09282227 -20.72553711 -0.09282227 -22.50585938 -0.08789062 C-24.32827148 -0.07532227 -24.32827148 -0.07532227 -26.1875 -0.0625 C-28.02731445 -0.05573242 -28.02731445 -0.05573242 -29.90429688 -0.04882812 C-32.93624668 -0.03703065 -35.96809906 -0.02056921 -39 0 C-38 -2 -38 -2 -34.8125 -3.125 C-22.72687544 -5.78684271 -11.59468541 -3.37299939 0 0 Z " fill="#508ECA" transform="translate(308,334)"/>
<path d="M0 0 C0 0.33 0 0.66 0 1 C-0.76666992 0.99476318 -1.53333984 0.98952637 -2.32324219 0.98413086 C-5.79881978 0.96333636 -9.27438427 0.95033191 -12.75 0.9375 C-13.9565625 0.92912109 -15.163125 0.92074219 -16.40625 0.91210938 C-17.56640625 0.90888672 -18.7265625 0.90566406 -19.921875 0.90234375 C-20.99018555 0.89710693 -22.05849609 0.89187012 -23.15917969 0.88647461 C-25.63840355 0.98554982 -27.63101687 1.3298788 -30 2 C-31.58211573 2.06548492 -33.16670081 2.08578381 -34.75 2.0625 C-35.54921875 2.05347656 -36.3484375 2.04445313 -37.171875 2.03515625 C-37.77515625 2.02355469 -38.3784375 2.01195312 -39 2 C-27.94401758 -5.37065495 -11.94818274 -4.53113928 0 0 Z " fill="#4680C2" transform="translate(231,333)"/>
<path d="M0 0 C2.0245738 1.93254772 3.42105792 3.63158688 5 6 C5 6.99 5 7.98 5 9 C-2.85546636 9.31918373 -10.26940505 8.35709504 -18 7 C-18 6.67 -18 6.34 -18 6 C-14.37 6 -10.74 6 -7 6 C-7 5.34 -7 4.68 -7 4 C-5.35 3.34 -3.7 2.68 -2 2 C-1.67 2.33 -1.34 2.66 -1 3 C-0.67 2.01 -0.34 1.02 0 0 Z " fill="#3A80D8" transform="translate(358,325)"/>
<path d="M0 0 C2.85963455 2.69391448 4.99861839 5.32846301 7.015625 8.6953125 C7.54414063 9.57574219 8.07265625 10.45617187 8.6171875 11.36328125 C9.15601563 12.27464844 9.69484375 13.18601562 10.25 14.125 C10.80429687 15.04410156 11.35859375 15.96320313 11.9296875 16.91015625 C16 23.73745382 16 23.73745382 16 26 C14.68 26.33 13.36 26.66 12 27 C9.99026832 23.0673934 7.99390285 19.12815258 6 15.1875 C5.42765625 14.06794922 4.8553125 12.94839844 4.265625 11.79492188 C3.72421875 10.72177734 3.1828125 9.64863281 2.625 8.54296875 C2.12226563 7.55321045 1.61953125 6.56345215 1.1015625 5.54370117 C0 3 0 3 0 0 Z " fill="#4B7BB4" transform="translate(323,268)"/>
<path d="M0 0 C0.845625 0.309375 1.69125 0.61875 2.5625 0.9375 C8.70060835 2.83473349 13.6730739 3.16208847 20 2 C19.34 2.66 18.68 3.32 18 4 C16.68 4 15.36 4 14 4 C14 4.99 14 5.98 14 7 C17.96 7.33 21.92 7.66 26 8 C22.73795243 9.63102378 19.97278684 10.70958612 16.5 11.6875 C15.5615625 11.95949219 14.623125 12.23148437 13.65625 12.51171875 C10.91637392 13.01537244 9.54991403 13.06426497 7 12 C6.01 11.01 5.02 10.02 4 9 C6.97 9.33 9.94 9.66 13 10 C13 9.34 13 8.68 13 8 C11.3970947 7.18501438 9.79262722 6.37310073 8.1875 5.5625 C7.29417969 5.11003906 6.40085938 4.65757812 5.48046875 4.19140625 C2.96000522 2.9168395 2.96000522 2.9168395 0 2 C0 1.34 0 0.68 0 0 Z " fill="#437FC9" transform="translate(156,341)"/>
<path d="M0 0 C7.22552784 1.56515114 14.39376907 3.31877364 21.5625 5.125 C23.21862305 5.54072266 23.21862305 5.54072266 24.90820312 5.96484375 C27.60574247 6.642148 30.30299886 7.32055641 33 8 C33 8.33 33 8.66 33 9 C25.01057472 9.48325843 18.06460848 8.07423218 10.375 6 C9.27542969 5.71382813 8.17585938 5.42765625 7.04296875 5.1328125 C4.358945 4.43263239 1.67833994 3.72155898 -1 3 C-0.67 2.01 -0.34 1.02 0 0 Z " fill="#5081BC" transform="translate(307,328)"/>
<path d="M0 0 C0 0.99 0 1.98 0 3 C1.65 3.33 3.3 3.66 5 4 C4.01 4.66 3.02 5.32 2 6 C1.30003906 6.474375 0.60007812 6.94875 -0.12109375 7.4375 C-0.88550781 7.953125 -1.64992188 8.46875 -2.4375 9 C-3.19933594 9.515625 -3.96117187 10.03125 -4.74609375 10.5625 C-6.78358167 11.86197236 -8.81824739 12.96627667 -11 14 C-9.93545026 9.26866783 -5.69343351 0 0 0 Z " fill="#3F80CC" transform="translate(268,315)"/>
<path d="M0 0 C-1.2065625 0.37125 -1.2065625 0.37125 -2.4375 0.75 C-5.171081 1.72238859 -5.171081 1.72238859 -5.8125 4.125 C-5.874375 4.74375 -5.93625 5.3625 -6 6 C-4.35 6.33 -2.7 6.66 -1 7 C-4.44450737 9.29633824 -6.93812283 9.54016485 -11 10 C-11 8.35 -11 6.7 -11 5 C-12.65 4.67 -14.3 4.34 -16 4 C-13.41588269 2.27725513 -11.45097344 1.31104478 -8.5625 0.3125 C-7.41974609 -0.09548828 -7.41974609 -0.09548828 -6.25390625 -0.51171875 C-3.78170279 -1.04729142 -2.37016716 -0.80445309 0 0 Z " fill="#3F7ECF" transform="translate(188,316)"/>
<path d="M0 0 C3.6100444 1.20334813 4.10828588 2.24351928 6.125 5.375 C6.64320313 6.16648437 7.16140625 6.95796875 7.6953125 7.7734375 C9 10 9 10 10 13 C6.80375738 11.46162154 3.78394426 9.71133468 0.75 7.875 C-0.14203125 7.33617187 -1.0340625 6.79734375 -1.953125 6.2421875 C-2.62859375 5.83226562 -3.3040625 5.42234375 -4 5 C-2.68 4.67 -1.36 4.34 0 4 C0 2.68 0 1.36 0 0 Z " fill="#477EC4" transform="translate(233,316)"/>
<path d="M0 0 C3.16115776 1.36983503 3.9927092 1.9890638 6 5 C6.125 8.1875 6.125 8.1875 6 11 C3.6875 10.875 3.6875 10.875 1 10 C-2 5.13793103 -2 5.13793103 -2 2 C-1.34 2 -0.68 2 0 2 C0 1.34 0 0.68 0 0 Z " fill="#417FD2" transform="translate(348,311)"/>
<path d="M0 0 C5.86809507 0.52393706 10.54873741 1.76108858 16 4 C16 4.99 16 5.98 16 7 C10.86496656 6.35812082 6.0056546 5.31727753 1 4 C0.67 2.68 0.34 1.36 0 0 Z " fill="#417DC5" transform="translate(291,323)"/>
<path d="M0 0 C4.95 0 9.9 0 15 0 C15 0.66 15 1.32 15 2 C14.01 2.495 14.01 2.495 13 3 C13.33 3.99 13.66 4.98 14 6 C10.26512223 5.5020163 8.18762365 5.12508244 5 3 C3.0103005 2.60986284 1.00980131 2.26797351 -1 2 C-0.67 1.34 -0.34 0.68 0 0 Z " fill="#3583DE" transform="translate(320,346)"/>
<path d="M0 0 C1 3 1 3 0.28735352 4.99291992 C-0.09493408 5.73131104 -0.47722168 6.46970215 -0.87109375 7.23046875 C-1.28037109 8.03291016 -1.68964844 8.83535156 -2.11132812 9.66210938 C-2.54896484 10.49548828 -2.98660156 11.32886719 -3.4375 12.1875 C-4.0881543 13.4549707 -4.0881543 13.4549707 -4.75195312 14.74804688 C-5.82582553 16.83678771 -6.90873822 18.92030626 -8 21 C-9.06103516 19.16162109 -9.06103516 19.16162109 -10 17 C-9.0234375 14.4140625 -9.0234375 14.4140625 -7.375 11.625 C-6.81296875 10.66207031 -6.2509375 9.69914062 -5.671875 8.70703125 C-3.84573464 5.75021987 -1.99801877 2.84333441 0 0 Z " fill="#4078BB" transform="translate(176,267)"/>
<path d="M0 0 C0.99 0.66 1.98 1.32 3 2 C2.67 2.99 2.34 3.98 2 5 C-1.58697577 5.19927643 -4.00095064 5.0683099 -7 3 C-8.25 0.875 -8.25 0.875 -9 -1 C-5.18702864 -2.27099045 -3.6732166 -1.45398157 0 0 Z " fill="#3781DC" transform="translate(167,347)"/>
<path d="M0 0 C2.31 0 4.62 0 7 0 C7 0.66 7 1.32 7 2 C10.465 1.505 10.465 1.505 14 1 C14 1.66 14 2.32 14 3 C14.56203125 3.13277344 15.1240625 3.26554687 15.703125 3.40234375 C18.09366153 4.02437111 20.41035775 4.77115041 22.75 5.5625 C23.54921875 5.83191406 24.3484375 6.10132813 25.171875 6.37890625 C25.77515625 6.58386719 26.3784375 6.78882813 27 7 C23.40294561 8.27673227 21.16974691 7.70375319 17.578125 6.56640625 C16.55332031 6.24736328 15.52851563 5.92832031 14.47265625 5.59960938 C13.40917969 5.25736328 12.34570312 4.91511719 11.25 4.5625 C10.17105469 4.22412109 9.09210938 3.88574219 7.98046875 3.53710938 C5.31730828 2.70045277 2.65748967 1.85446467 0 1 C0 0.67 0 0.34 0 0 Z " fill="#437FC8" transform="translate(306,321)"/>
<path d="M0 0 C4.62 0 9.24 0 14 0 C14.33 0.99 14.66 1.98 15 3 C9.72 3 4.44 3 -1 3 C-0.67 2.01 -0.34 1.02 0 0 Z " fill="#3480D5" transform="translate(205,323)"/>
<path d="M0 0 C0.33 0 0.66 0 1 0 C1 1.98 1 3.96 1 6 C-0.32 6.33 -1.64 6.66 -3 7 C-3.33 8.98 -3.66 10.96 -4 13 C-1.69 13.33 0.62 13.66 3 14 C3 14.33 3 14.66 3 15 C-0.63 15 -4.26 15 -8 15 C-6.4879538 11.21988449 -5.01337003 8.13028198 -2.9375 4.6875 C-2.41027344 3.80449219 -1.88304687 2.92148437 -1.33984375 2.01171875 C-0.89769531 1.34785156 -0.45554688 0.68398438 0 0 Z " fill="#447CC5" transform="translate(144,319)"/>
<path d="M0 0 C1.35055201 2.70110402 1 5.00789006 1 8 C1.33 8.66 1.66 9.32 2 10 C0.78515625 12.6015625 0.78515625 12.6015625 -0.9375 15.625 C-1.50339844 16.62789063 -2.06929687 17.63078125 -2.65234375 18.6640625 C-3.09707031 19.43492187 -3.54179687 20.20578125 -4 21 C-4.66 20.34 -5.32 19.68 -6 19 C-5.34 18.34 -4.68 17.68 -4 17 C-3.3574765 14.93125966 -3.3574765 14.93125966 -3 13 C-2.34 13 -1.68 13 -1 13 C-1.33 11.35 -1.66 9.7 -2 8 C-2.66 8 -3.32 8 -4 8 C-2.87548273 5.0280615 -1.77706209 2.66559313 0 0 Z " fill="#427DC4" transform="translate(154,303)"/>
<path d="M0 0 C-1.26451932 1.31858428 -2.53685475 2.62967631 -3.8125 3.9375 C-4.52019531 4.66839844 -5.22789062 5.39929688 -5.95703125 6.15234375 C-8 8 -8 8 -11 9 C-11.33 8.34 -11.66 7.68 -12 7 C-11.01 7 -10.02 7 -9 7 C-9 6.34 -9 5.68 -9 5 C-10.32 4.67 -11.64 4.34 -13 4 C-11.40233897 3.13372601 -9.79660056 2.28233535 -8.1875 1.4375 C-7.29417969 0.96183594 -6.40085937 0.48617188 -5.48046875 -0.00390625 C-3 -1 -3 -1 0 0 Z " fill="#4985C8" transform="translate(353,338)"/>
<path d="M0 0 C-0.639375 0.103125 -1.27875 0.20625 -1.9375 0.3125 C-2.618125 0.539375 -3.29875 0.76625 -4 1 C-4.33 1.99 -4.66 2.98 -5 4 C-5.94875 3.938125 -6.8975 3.87625 -7.875 3.8125 C-9.421875 3.9053125 -9.421875 3.9053125 -11 4 C-11.99 5.485 -11.99 5.485 -13 7 C-13.66 7 -14.32 7 -15 7 C-15 7.66 -15 8.32 -15 9 C-16.32 8.67 -17.64 8.34 -19 8 C-19 7.01 -19 6.02 -19 5 C-17.02 4.67 -15.04 4.34 -13 4 C-13 3.34 -13 2.68 -13 2 C-4.57142857 -0.28571429 -4.57142857 -0.28571429 0 0 Z " fill="#3E80D4" transform="translate(189,340)"/>
<path d="M0 0 C0 0.99 0 1.98 0 3 C2.31 3 4.62 3 7 3 C7.33 2.01 7.66 1.02 8 0 C8.33 1.32 8.66 2.64 9 4 C1.14453364 4.31918373 -6.26940505 3.35709504 -14 2 C-14 1.67 -14 1.34 -14 1 C-12.22932584 0.83165067 -10.45845388 0.66538091 -8.6875 0.5 C-7.70136719 0.4071875 -6.71523438 0.314375 -5.69921875 0.21875 C-3 0 -3 0 0 0 Z " fill="#4581C7" transform="translate(354,330)"/>
<path d="M0 0 C0.66 0.33 1.32 0.66 2 1 C2 2.65 2 4.3 2 6 C1.34 6 0.68 6 0 6 C0 6.66 0 7.32 0 8 C-1.98 8.33 -3.96 8.66 -6 9 C-4.68775452 5.06326356 -3.08089673 2.77280706 0 0 Z " fill="#3881E0" transform="translate(151,310)"/>
<path d="M0 0 C4.42679007 1.47559669 4.91432696 3.90057368 7 8 C7 8.66 7 9.32 7 10 C5.68 10.33 4.36 10.66 3 11 C0.84694043 7.14243493 -0.39253254 4.44870215 0 0 Z " fill="#467EC3" transform="translate(332,284)"/>
<path d="M0 0 C6.95023264 0.64653327 13.38177303 2.86027248 20 5 C18.02 5.99 18.02 5.99 16 7 C16 6.34 16 5.68 16 5 C14.824375 5.12375 14.824375 5.12375 13.625 5.25 C8.62373094 4.90508489 4.5484412 3.01353919 0 1 C0 0.67 0 0.34 0 0 Z " fill="#4581C4" transform="translate(308,314)"/>
<path d="M0 0 C0 0.33 0 0.66 0 1 C-6.15370839 2.823321 -11.59646678 3.2361959 -18 3 C-12.4830226 0.03509378 -6.15309721 -1.98487007 0 0 Z " fill="#5987B4" transform="translate(178,334)"/>
<path d="M0 0 C0.66 0.66 1.32 1.32 2 2 C-9.385 1.505 -9.385 1.505 -21 1 C-21 0.67 -21 0.34 -21 0 C-5.56574924 -1.39143731 -5.56574924 -1.39143731 0 0 Z " fill="#6390C9" transform="translate(229,332)"/>
<path d="M0 0 C1.8871875 0.0309375 1.8871875 0.0309375 3.8125 0.0625 C2.8125 2.0625 2.8125 2.0625 1.046875 2.68359375 C-1.32900323 3.08649618 -3.52929517 3.16041478 -5.9375 3.125 C-6.73671875 3.11597656 -7.5359375 3.10695313 -8.359375 3.09765625 C-8.96265625 3.08605469 -9.5659375 3.07445312 -10.1875 3.0625 C-6.61118771 0.67829181 -4.20439261 -0.06892447 0 0 Z " fill="#5691C0" transform="translate(202.1875,331.9375)"/>
<path d="M0 0 C5.21979128 -0.1799928 9.07262981 0.02905192 14 2 C14 2.33 14 2.66 14 3 C12.41705218 3.05437607 10.83355744 3.09296271 9.25 3.125 C8.36828125 3.14820313 7.4865625 3.17140625 6.578125 3.1953125 C3.8864142 2.99139502 2.30095026 2.36551721 0 1 C0 0.67 0 0.34 0 0 Z " fill="#5996C8" transform="translate(294,332)"/>
<path d="M0 0 C2.475 0.99 2.475 0.99 5 2 C5 3.32 5 4.64 5 6 C3.35 5.67 1.7 5.34 0 5 C-0.33 4.01 -0.66 3.02 -1 2 C-0.67 1.34 -0.34 0.68 0 0 Z " fill="#3981DD" transform="translate(349,316)"/>
<path d="M0 0 C0.33 0.99 0.66 1.98 1 3 C1.99 3.33 2.98 3.66 4 4 C4.33 5.98 4.66 7.96 5 10 C4.01 10.495 4.01 10.495 3 11 C3 10.01 3 9.02 3 8 C2.34 8 1.68 8 1 8 C0.26919734 6.02253397 -0.39421747 4.01927511 -1 2 C-0.67 1.34 -0.34 0.68 0 0 Z " fill="#3781DF" transform="translate(342,301)"/>
<path d="M0 0 C3.3 0 6.6 0 10 0 C6.61885051 1.69057475 4.3700175 2.45815467 0.75 3.125 C-0.58804688 3.37636719 -0.58804688 3.37636719 -1.953125 3.6328125 C-2.62859375 3.75398438 -3.3040625 3.87515625 -4 4 C-4 3.34 -4 2.68 -4 2 C-2.68 2 -1.36 2 0 2 C0 1.34 0 0.68 0 0 Z " fill="#467CC3" transform="translate(192,319)"/>
<path d="M0 0 C4.3890815 0.51035831 7.33708062 1.52214277 11 4 C9.375 4.6875 9.375 4.6875 7 5 C1.33333333 2.66666667 1.33333333 2.66666667 0 0 Z " fill="#3D81D3" transform="translate(225,326)"/>
<path d="M0 0 C1 3 1 3 0.22265625 5.04296875 C-0.16019531 5.75066406 -0.54304687 6.45835937 -0.9375 7.1875 C-1.31777344 7.90292969 -1.69804687 8.61835938 -2.08984375 9.35546875 C-2.54037109 10.16951172 -2.54037109 10.16951172 -3 11 C-3.66 10.67 -4.32 10.34 -5 10 C-3.66511872 6.40608886 -2.03977277 3.24509304 0 0 Z " fill="#4A6F96" transform="translate(176,267)"/>
<path d="M0 0 C1.65 0 3.3 0 5 0 C5 0.33 5 0.66 5 1 C7.31 1.33 9.62 1.66 12 2 C12 2.33 12 2.66 12 3 C7.71 3 3.42 3 -1 3 C-0.67 2.01 -0.34 1.02 0 0 Z " fill="#4586D3" transform="translate(205,323)"/>
<path d="M0 0 C0.33 0.66 0.66 1.32 1 2 C0.67 2.66 0.34 3.32 0 4 C0.66 4.33 1.32 4.66 2 5 C0.35 6.32 -1.3 7.64 -3 9 C-3.33 8.34 -3.66 7.68 -4 7 C-3.22265625 5.2734375 -3.22265625 5.2734375 -2.0625 3.375 C-1.381875 2.26125 -0.70125 1.1475 0 0 Z " fill="#4586BF" transform="translate(261,320)"/>
<path d="M0 0 C0.99 0.66 1.98 1.32 3 2 C2.67 3.32 2.34 4.64 2 6 C0.68 5.67 -0.64 5.34 -2 5 C-1.125 1.125 -1.125 1.125 0 0 Z " fill="#3483E1" transform="translate(234,342)"/>
<path d="M0 0 C1.67542976 0.28604898 3.34385343 0.61781233 5 1 C5 1.66 5 2.32 5 3 C1.7 3 -1.6 3 -5 3 C-3.68 2.34 -2.36 1.68 -1 1 C-0.67 0.67 -0.34 0.34 0 0 Z " fill="#4586D9" transform="translate(287,323)"/>
<path d="M0 0 C1 2 1 2 0.0625 5.125 C-0.288125 6.07375 -0.63875 7.0225 -1 8 C-1.99 8 -2.98 8 -4 8 C-2.87548273 5.0280615 -1.77706209 2.66559313 0 0 Z " fill="#427EC6" transform="translate(149,311)"/>
<path d="M0 0 C-3.08888522 2.05925681 -3.70935927 2.2390374 -7.1875 2.125 C-9.0746875 2.063125 -9.0746875 2.063125 -11 2 C-6.98764085 -0.6749061 -4.6342454 -1.48957888 0 0 Z " fill="#457FC2" transform="translate(199,313)"/>
<path d="M0 0 C4.10801767 1.18676066 5.89448334 1.89448334 9 5 C4.545 4.01 4.545 4.01 0 3 C0 2.01 0 1.02 0 0 Z " fill="#4580C9" transform="translate(224,311)"/>
<path d="M0 0 C0.33 0 0.66 0 1 0 C1 1.65 1 3.3 1 5 C0.67 5 0.34 5 0 5 C0 3.35 0 1.7 0 0 Z " fill="#050505" transform="translate(309,249)"/>
<path d="" fill="#565D69" transform="translate(0,0)"/>
<path d="" fill="#000000" transform="translate(0,0)"/>
<path d="" fill="#667788" transform="translate(0,0)"/>
<path d="" fill="#608080" transform="translate(0,0)"/>
<path d="" fill="#333333" transform="translate(0,0)"/>
</svg>
